<?xml version="1.0" standalone="no"?>
<!DOCTYPE svg PUBLIC "-//W3C//DTD SVG 20010904//EN"
 "http://www.w3.org/TR/2001/REC-SVG-20010904/DTD/svg10.dtd">
<svg version="1.0" xmlns="http://www.w3.org/2000/svg"
 width="512.000000pt" height="512.000000pt" viewBox="0 0 512.000000 512.000000"
 preserveAspectRatio="xMidYMid meet">

<g transform="translate(0.000000,512.000000) scale(0.100000,-0.100000)"
fill="#000000" stroke="none">
<path d="M71 5092 c-67 -36 -72 -57 -69 -324 l3 -236 25 -28 c41 -44 79 -54
199 -54 101 0 112 2 137 23 20 18 27 32 26 58 -1 56 -27 69 -143 69 l-99 0 0
180 0 180 553 -2 552 -3 0 -175 0 -175 -327 -5 c-355 -5 -349 -4 -363 -62 -6
-22 -1 -33 23 -58 l30 -30 149 0 148 -1 174 -148 c96 -81 172 -152 170 -157
-2 -5 -42 -39 -89 -75 -405 -315 -713 -813 -814 -1319 -38 -190 -49 -330 -43
-539 18 -604 253 -1135 691 -1559 350 -339 767 -543 1266 -619 157 -24 472
-23 630 1 467 70 870 261 1217 575 119 108 134 141 88 186 -44 45 -74 35 -172
-58 -621 -586 -1536 -739 -2324 -387 -115 51 -299 155 -299 169 0 5 244 348
542 763 298 414 571 795 607 845 l66 93 80 26 c44 14 493 156 999 316 682 215
921 287 926 277 10 -16 47 -192 61 -294 16 -107 15 -397 0 -515 -43 -327 -156
-637 -332 -905 -44 -68 -72 -120 -72 -137 0 -53 53 -83 108 -61 53 20 271 420
339 623 138 411 159 874 57 1277 l-19 73 117 36 c151 47 181 63 209 112 31 56
28 88 -24 220 -255 654 -786 1203 -1434 1480 -307 132 -721 222 -968 211 -69
-4 -84 -8 -107 -29 -50 -46 -55 -68 -55 -223 l0 -145 -87 -6 c-342 -27 -695
-133 -960 -288 l-60 -36 -127 107 -127 106 84 5 c90 6 124 20 154 67 16 24 18
55 18 264 0 224 -1 239 -21 266 -47 65 -27 63 -684 63 -557 0 -597 -1 -629
-18z m2799 -296 c69 -8 171 -24 228 -35 93 -20 331 -87 341 -97 2 -2 -172 -4
-387 -4 l-392 0 0 75 0 75 43 0 c23 0 98 -7 167 -14z m1022 -349 c57 -34 117
-73 132 -85 l29 -22 -697 0 -696 0 0 85 0 85 564 0 563 0 105 -63z m-1382
-1083 l0 -1046 -47 -67 c-67 -95 -1175 -1635 -1179 -1640 -2 -2 -34 21 -71 52
-405 333 -683 854 -743 1392 -15 132 -12 367 5 502 62 472 268 889 609 1229
115 114 283 254 305 254 4 0 205 -166 445 -370 336 -284 445 -370 465 -370 57
0 94 57 69 104 -7 13 -198 180 -425 371 -227 192 -409 353 -406 358 13 20 260
130 386 172 178 58 391 98 550 104 l37 1 0 -1046z m1826 741 l89 -84 -173 -1
-174 0 -29 -29 c-35 -36 -37 -61 -5 -98 l24 -28 248 -5 247 -5 54 -70 c29 -38
53 -73 53 -77 0 -5 -452 -8 -1005 -8 l-1005 0 0 80 0 80 566 0 c411 0 571 3
587 12 52 27 62 83 22 123 l-24 25 -576 0 -575 0 0 80 0 79 133 4 c72 1 429 4
793 5 l660 2 90 -85z m484 -645 c22 -44 40 -82 40 -85 0 -7 -1771 -6 -2003 2
l-197 6 0 79 0 78 1060 0 1060 0 40 -80z m131 -292 l18 -46 -114 -36 -113 -36
-1041 0 -1041 0 0 85 0 85 1136 -2 1136 -3 19 -47z m-702 -272 c-2 -2 -120
-40 -262 -85 l-258 -81 -534 0 -535 0 0 85 0 85 797 0 c438 0 794 -2 792 -4z
m-1154 -365 c-226 -73 -413 -131 -424 -131 -7 0 -11 30 -11 85 l0 85 278 0
277 -1 -120 -38z"/>
</g>
</svg>
