<?xml version="1.0" standalone="no"?>
<!DOCTYPE svg PUBLIC "-//W3C//DTD SVG 20010904//EN"
 "http://www.w3.org/TR/2001/REC-SVG-20010904/DTD/svg10.dtd">
<svg version="1.0" xmlns="http://www.w3.org/2000/svg"
 width="512.000000pt" height="512.000000pt" viewBox="0 0 512.000000 512.000000"
 preserveAspectRatio="xMidYMid meet">

<g transform="translate(0.000000,512.000000) scale(0.100000,-0.100000)"
fill="#000000" stroke="none">
<path d="M3711 4681 c-113 -16 -126 -20 -148 -46 -27 -31 -25 -65 5 -99 15
-16 27 -18 95 -13 42 4 77 4 77 2 0 -8 -117 -169 -171 -237 -177 -222 -370
-409 -595 -578 -444 -336 -957 -550 -1509 -631 -160 -23 -429 -39 -681 -39
-178 0 -192 -1 -209 -20 -25 -28 -23 -76 4 -103 20 -21 32 -22 184 -25 215 -5
549 13 722 39 907 132 1713 611 2262 1344 58 77 109 142 114 143 5 2 9 -11 9
-30 0 -101 54 -153 121 -117 36 19 38 48 17 215 -24 197 -30 208 -114 210 -32
1 -115 -6 -183 -15z"/>
<path d="M133 4517 c-111 -111 -123 -126 -123 -158 0 -44 28 -72 71 -72 22 0
42 11 77 46 26 26 51 47 55 47 4 0 7 -810 7 -1800 l0 -1800 -75 0 c-47 0 -87
-6 -104 -15 -46 -23 -54 -66 -20 -109 l20 -26 2411 0 2411 0 -52 -54 c-37 -40
-51 -63 -51 -84 0 -39 33 -72 73 -72 29 0 49 16 160 128 102 104 127 134 127
157 0 22 -23 51 -112 142 -62 63 -125 121 -140 129 -34 18 -73 9 -93 -19 -27
-39 -18 -68 37 -124 l52 -53 -182 0 -182 0 0 1391 c0 1561 6 1440 -74 1479
-40 19 -61 20 -342 20 -334 0 -347 -2 -391 -69 l-23 -34 0 -1178 c0 -647 3
-1185 6 -1194 10 -24 60 -46 89 -39 58 14 55 -54 55 1206 l0 1158 265 0 265 0
0 -1370 0 -1370 -265 0 -265 0 0 78 c0 93 -18 122 -75 122 -54 0 -75 -36 -75
-126 l0 -74 -105 0 -105 0 0 1073 c0 1031 -1 1073 -19 1103 -37 61 -56 64
-393 64 -338 0 -351 -2 -395 -69 l-23 -34 0 -1068 0 -1069 -105 0 -105 0 0
865 0 865 -34 38 -34 37 -334 3 c-458 3 -428 29 -428 -366 0 -257 0 -261 23
-285 33 -38 70 -42 104 -13 l28 24 3 246 3 246 259 0 260 0 0 -830 0 -830
-260 0 -260 0 0 445 c0 485 -1 497 -55 511 -34 9 -80 -12 -94 -42 -8 -17 -11
-160 -11 -469 l0 -445 -105 0 -105 0 0 590 c0 652 2 632 -63 667 -29 16 -65
18 -352 18 -293 0 -322 -2 -347 -18 -64 -44 -63 -35 -66 -448 l-3 -377 23 -26
c33 -36 68 -42 101 -16 l27 21 0 355 0 354 265 0 265 0 0 -560 0 -560 -265 0
-265 0 0 83 c0 96 -13 117 -72 117 -55 0 -72 -27 -77 -121 l-3 -79 -89 0 -89
0 0 1802 0 1802 48 -46 c64 -63 92 -69 133 -29 47 47 36 67 -104 209 -162 163
-150 163 -314 -1z m3177 -2692 l0 -1045 -265 0 -265 0 0 1045 0 1045 265 0
265 0 0 -1045z"/>
</g>
</svg>
